<mxfile host="Electron" modified="2023-08-19T10:12:43.220Z" agent="Mozilla/5.0 (X11; Linux x86_64) AppleWebKit/537.36 (KHTML, like Gecko) draw.io/21.6.5 Chrome/114.0.5735.243 Electron/25.3.1 Safari/537.36" etag="Qy0d23uh3RWCg4XH5l1u" version="21.6.5" type="device" pages="2">
  <diagram name="第 1 页" id="cz0CDjTEXv9G-AWCU6ZE">
    <mxGraphModel dx="1598" dy="851" grid="1" gridSize="10" guides="1" tooltips="1" connect="1" arrows="1" fold="1" page="1" pageScale="1" pageWidth="3300" pageHeight="4681" math="0" shadow="0">
      <root>
        <mxCell id="0" />
        <mxCell id="1" parent="0" />
        <mxCell id="DoSVlUTldO5zQARIhVMd-1" value="&lt;div style=&quot;background-color: rgb(255, 255, 255); color: rgb(8, 8, 8); font-family: &amp;quot;JetBrains Mono&amp;quot;, monospace; font-size: 11pt;&quot;&gt;int &lt;span style=&quot;color:#00627a;&quot;&gt;main&lt;/span&gt;(&lt;span style=&quot;color:#0033b3;&quot;&gt;int &lt;/span&gt;argc, &lt;span style=&quot;color:#0033b3;&quot;&gt;char &lt;/span&gt;**argv, &lt;span style=&quot;color:#0033b3;&quot;&gt;char &lt;/span&gt;**envp)&lt;/div&gt;" style="rounded=1;whiteSpace=wrap;html=1;fillColor=#dae8fc;strokeColor=#6c8ebf;fontFamily=Courier New;fontColor=#006600;fontStyle=1" parent="1" vertex="1">
          <mxGeometry x="200" y="330" width="360" height="30" as="geometry" />
        </mxCell>
        <mxCell id="DoSVlUTldO5zQARIhVMd-2" value="&lt;div style=&quot;background-color: rgb(255, 255, 255); color: rgb(8, 8, 8); font-family: &amp;quot;JetBrains Mono&amp;quot;, monospace; font-size: 11pt;&quot;&gt;&lt;div style=&quot;font-size: 11pt;&quot;&gt;void &lt;span style=&quot;color:#00627a;&quot;&gt;cpu_loop&lt;/span&gt;(&lt;span style=&quot;color:#371f80;&quot;&gt;CPURISCVState &lt;/span&gt;*env)&lt;/div&gt;&lt;/div&gt;" style="rounded=1;whiteSpace=wrap;html=1;fillColor=#dae8fc;strokeColor=#6c8ebf;fontFamily=Courier New;fontColor=#006600;fontStyle=1" parent="1" vertex="1">
          <mxGeometry x="640" y="530" width="280" height="30" as="geometry" />
        </mxCell>
        <mxCell id="DoSVlUTldO5zQARIhVMd-3" value="&lt;div style=&quot;background-color: rgb(255, 255, 255); color: rgb(8, 8, 8); font-family: &amp;quot;JetBrains Mono&amp;quot;, monospace; font-size: 11pt;&quot;&gt;&lt;div style=&quot;font-size: 11pt;&quot;&gt;&lt;div style=&quot;font-size: 11pt;&quot;&gt;static inline &lt;span style=&quot;color:#371f80;&quot;&gt;CPUState &lt;/span&gt;*&lt;span style=&quot;color:#00627a;&quot;&gt;env_cpu&lt;/span&gt;(&lt;span style=&quot;color:#371f80;&quot;&gt;CPUArchState &lt;/span&gt;*env)&lt;/div&gt;&lt;/div&gt;&lt;/div&gt;" style="rounded=1;whiteSpace=wrap;html=1;fillColor=#dae8fc;strokeColor=#6c8ebf;fontFamily=Courier New;fontColor=#006600;fontStyle=1" parent="1" vertex="1">
          <mxGeometry x="1000" y="650" width="400" height="30" as="geometry" />
        </mxCell>
        <mxCell id="DoSVlUTldO5zQARIhVMd-4" value="&lt;div style=&quot;background-color: rgb(255, 255, 255); color: rgb(8, 8, 8); font-family: &amp;quot;JetBrains Mono&amp;quot;, monospace; font-size: 11pt;&quot;&gt;&lt;div style=&quot;font-size: 11pt;&quot;&gt;&lt;div style=&quot;font-size: 11pt;&quot;&gt;&lt;div style=&quot;font-size: 11pt;&quot;&gt;void &lt;span style=&quot;color:#00627a;&quot;&gt;cpu_exec_start&lt;/span&gt;(&lt;span style=&quot;color:#371f80;&quot;&gt;CPUState &lt;/span&gt;*cpu)&lt;/div&gt;&lt;/div&gt;&lt;/div&gt;&lt;/div&gt;" style="rounded=1;whiteSpace=wrap;html=1;fillColor=#dae8fc;strokeColor=#6c8ebf;fontFamily=Courier New;fontColor=#006600;fontStyle=1" parent="1" vertex="1">
          <mxGeometry x="1000" y="770" width="280" height="30" as="geometry" />
        </mxCell>
        <mxCell id="DoSVlUTldO5zQARIhVMd-5" value="&lt;div style=&quot;background-color: rgb(255, 255, 255); color: rgb(8, 8, 8); font-family: &amp;quot;JetBrains Mono&amp;quot;, monospace; font-size: 11pt;&quot;&gt;&lt;div style=&quot;font-size: 11pt;&quot;&gt;&lt;div style=&quot;font-size: 11pt;&quot;&gt;&lt;div style=&quot;font-size: 11pt;&quot;&gt;&lt;div style=&quot;font-size: 11pt;&quot;&gt;&lt;div style=&quot;font-size: 11pt;&quot;&gt;int &lt;span style=&quot;color:#00627a;&quot;&gt;cpu_exec&lt;/span&gt;(&lt;span style=&quot;color:#371f80;&quot;&gt;CPUState &lt;/span&gt;*cpu)&lt;/div&gt;&lt;/div&gt;&lt;/div&gt;&lt;/div&gt;&lt;/div&gt;&lt;/div&gt;" style="rounded=1;whiteSpace=wrap;html=1;fillColor=#dae8fc;strokeColor=#6c8ebf;fontFamily=Courier New;fontColor=#006600;fontStyle=1" parent="1" vertex="1">
          <mxGeometry x="1000" y="890" width="280" height="30" as="geometry" />
        </mxCell>
        <mxCell id="DoSVlUTldO5zQARIhVMd-6" value="&lt;div style=&quot;background-color: rgb(255, 255, 255); color: rgb(8, 8, 8); font-family: &amp;quot;JetBrains Mono&amp;quot;, monospace; font-size: 11pt;&quot;&gt;&lt;div style=&quot;font-size: 11pt;&quot;&gt;&lt;div style=&quot;font-size: 11pt;&quot;&gt;&lt;div style=&quot;font-size: 11pt;&quot;&gt;&lt;div style=&quot;font-size: 11pt;&quot;&gt;&lt;div style=&quot;font-size: 11pt;&quot;&gt;&lt;div style=&quot;font-size: 11pt;&quot;&gt;void &lt;span style=&quot;color:#00627a;&quot;&gt;cpu_exec_end&lt;/span&gt;(&lt;span style=&quot;color:#371f80;&quot;&gt;CPUState &lt;/span&gt;*cpu)&lt;/div&gt;&lt;/div&gt;&lt;/div&gt;&lt;/div&gt;&lt;/div&gt;&lt;/div&gt;&lt;/div&gt;" style="rounded=1;whiteSpace=wrap;html=1;fillColor=#dae8fc;strokeColor=#6c8ebf;fontFamily=Courier New;fontColor=#006600;fontStyle=1" parent="1" vertex="1">
          <mxGeometry x="1000" y="1010" width="280" height="30" as="geometry" />
        </mxCell>
        <mxCell id="DoSVlUTldO5zQARIhVMd-7" value="&lt;div style=&quot;background-color: rgb(255, 255, 255); color: rgb(8, 8, 8); font-family: &amp;quot;JetBrains Mono&amp;quot;, monospace; font-size: 11pt;&quot;&gt;&lt;div style=&quot;font-size: 11pt;&quot;&gt;&lt;div style=&quot;font-size: 11pt;&quot;&gt;&lt;div style=&quot;font-size: 11pt;&quot;&gt;&lt;div style=&quot;font-size: 11pt;&quot;&gt;&lt;div style=&quot;font-size: 11pt;&quot;&gt;&lt;div style=&quot;font-size: 11pt;&quot;&gt;&lt;div style=&quot;font-size: 11pt;&quot;&gt;void &lt;span style=&quot;color:#00627a;&quot;&gt;process_queued_cpu_work&lt;/span&gt;(&lt;span style=&quot;color:#371f80;&quot;&gt;CPUState &lt;/span&gt;*cpu)&lt;/div&gt;&lt;/div&gt;&lt;/div&gt;&lt;/div&gt;&lt;/div&gt;&lt;/div&gt;&lt;/div&gt;&lt;/div&gt;" style="rounded=1;whiteSpace=wrap;html=1;fillColor=#dae8fc;strokeColor=#6c8ebf;fontFamily=Courier New;fontColor=#006600;fontStyle=1" parent="1" vertex="1">
          <mxGeometry x="1000" y="1130" width="320" height="30" as="geometry" />
        </mxCell>
      </root>
    </mxGraphModel>
  </diagram>
  <diagram id="tmhIXHigf7vmKPYLjcRO" name="第 2 页">
    <mxGraphModel dx="1306" dy="808" grid="1" gridSize="10" guides="1" tooltips="1" connect="1" arrows="1" fold="1" page="1" pageScale="1" pageWidth="3300" pageHeight="4681" math="0" shadow="0">
      <root>
        <mxCell id="0" />
        <mxCell id="1" parent="0" />
        <mxCell id="0-huudQACzoxj3dmUnI_-1" value="&lt;font face=&quot;Lucida Console&quot;&gt;Classname&lt;/font&gt;" style="swimlane;fontStyle=0;childLayout=stackLayout;horizontal=1;startSize=26;fillColor=#d5e8d4;horizontalStack=0;resizeParent=1;resizeParentMax=0;resizeLast=0;collapsible=1;marginBottom=0;whiteSpace=wrap;html=1;strokeColor=#82b366;" vertex="1" parent="1">
          <mxGeometry x="640" y="160" width="200" height="104" as="geometry" />
        </mxCell>
        <mxCell id="0-huudQACzoxj3dmUnI_-2" value="+ field: type" style="text;strokeColor=none;fillColor=none;align=left;verticalAlign=top;spacingLeft=4;spacingRight=4;overflow=hidden;rotatable=0;points=[[0,0.5],[1,0.5]];portConstraint=eastwest;whiteSpace=wrap;html=1;fontFamily=Lucida Console;" vertex="1" parent="0-huudQACzoxj3dmUnI_-1">
          <mxGeometry y="26" width="200" height="26" as="geometry" />
        </mxCell>
        <mxCell id="0-huudQACzoxj3dmUnI_-3" value="+ field: type" style="text;strokeColor=none;fillColor=none;align=left;verticalAlign=top;spacingLeft=4;spacingRight=4;overflow=hidden;rotatable=0;points=[[0,0.5],[1,0.5]];portConstraint=eastwest;whiteSpace=wrap;html=1;fontFamily=Lucida Console;" vertex="1" parent="0-huudQACzoxj3dmUnI_-1">
          <mxGeometry y="52" width="200" height="26" as="geometry" />
        </mxCell>
        <mxCell id="0-huudQACzoxj3dmUnI_-4" value="+ field: type" style="text;strokeColor=none;fillColor=none;align=left;verticalAlign=top;spacingLeft=4;spacingRight=4;overflow=hidden;rotatable=0;points=[[0,0.5],[1,0.5]];portConstraint=eastwest;whiteSpace=wrap;html=1;fontFamily=Lucida Console;" vertex="1" parent="0-huudQACzoxj3dmUnI_-1">
          <mxGeometry y="78" width="200" height="26" as="geometry" />
        </mxCell>
        <mxCell id="suy_uMOGLC9eVbtw0SGc-6" value="&lt;div style=&quot;background-color: rgb(255, 255, 255); color: rgb(8, 8, 8); font-family: &amp;quot;JetBrains Mono&amp;quot;, monospace; font-size: 11pt;&quot;&gt;DeviceState&lt;/div&gt;" style="swimlane;whiteSpace=wrap;html=1;fillColor=#d5e8d4;strokeColor=#82b366;fontFamily=Lucida Console;" vertex="1" parent="1">
          <mxGeometry x="560" y="400" width="280" height="400" as="geometry" />
        </mxCell>
        <mxCell id="suy_uMOGLC9eVbtw0SGc-8" value="&lt;div style=&quot;background-color: rgb(255, 255, 255); color: rgb(8, 8, 8); font-family: &amp;quot;JetBrains Mono&amp;quot;, monospace; font-size: 11pt;&quot;&gt;&lt;span style=&quot;color:#371f80;&quot;&gt;Object &lt;/span&gt;&lt;span style=&quot;color:#660e7a;&quot;&gt;parent_obj&lt;/span&gt;;&lt;br&gt;&lt;span style=&quot;color:#8c8c8c;font-style:italic;&quot;&gt;/*&amp;lt; public &amp;gt;*/&lt;br&gt;&lt;/span&gt;&lt;span style=&quot;color:#8c8c8c;font-style:italic;&quot;&gt;&lt;br&gt;&lt;/span&gt;&lt;span style=&quot;color:#0033b3;&quot;&gt;char &lt;/span&gt;*&lt;span style=&quot;color:#660e7a;&quot;&gt;id&lt;/span&gt;;&lt;br&gt;&lt;span style=&quot;color:#0033b3;&quot;&gt;char &lt;/span&gt;*&lt;span style=&quot;color:#660e7a;&quot;&gt;canonical_path&lt;/span&gt;;&lt;br&gt;&lt;span style=&quot;color:#1f542e;font-weight:bold;&quot;&gt;bool &lt;/span&gt;&lt;span style=&quot;color:#660e7a;&quot;&gt;realized&lt;/span&gt;;&lt;br&gt;&lt;span style=&quot;color:#1f542e;font-weight:bold;&quot;&gt;bool &lt;/span&gt;&lt;span style=&quot;color:#660e7a;&quot;&gt;pending_deleted_event&lt;/span&gt;;&lt;br&gt;&lt;span style=&quot;color:#371f80;&quot;&gt;int64_t &lt;/span&gt;&lt;span style=&quot;color:#660e7a;&quot;&gt;pending_deleted_expires_ms&lt;/span&gt;;&lt;br&gt;&lt;span style=&quot;color:#371f80;&quot;&gt;QDict &lt;/span&gt;*&lt;span style=&quot;color:#660e7a;&quot;&gt;opts&lt;/span&gt;;&lt;br&gt;&lt;span style=&quot;color:#0033b3;&quot;&gt;int &lt;/span&gt;&lt;span style=&quot;color:#660e7a;&quot;&gt;hotplugged&lt;/span&gt;;&lt;br&gt;&lt;span style=&quot;color:#1f542e;font-weight:bold;&quot;&gt;bool &lt;/span&gt;&lt;span style=&quot;color:#660e7a;&quot;&gt;allow_unplug_during_migration&lt;/span&gt;;&lt;br&gt;&lt;span style=&quot;color:#371f80;&quot;&gt;BusState &lt;/span&gt;*&lt;span style=&quot;color:#660e7a;&quot;&gt;parent_bus&lt;/span&gt;;&lt;br&gt;&lt;span style=&quot;color:#1f542e;font-weight:bold;&quot;&gt;QLIST_HEAD&lt;/span&gt;(, &lt;span style=&quot;color:#008080;&quot;&gt;NamedGPIOList&lt;/span&gt;) &lt;span style=&quot;color:#660e7a;&quot;&gt;gpios&lt;/span&gt;;&lt;br&gt;&lt;span style=&quot;color:#1f542e;font-weight:bold;&quot;&gt;QLIST_HEAD&lt;/span&gt;(, &lt;span style=&quot;color:#008080;&quot;&gt;NamedClockList&lt;/span&gt;) &lt;span style=&quot;color:#660e7a;&quot;&gt;clocks&lt;/span&gt;;&lt;br&gt;&lt;span style=&quot;color:#1f542e;font-weight:bold;&quot;&gt;QLIST_HEAD&lt;/span&gt;(, &lt;span style=&quot;color:#008080;&quot;&gt;BusState&lt;/span&gt;) &lt;span style=&quot;color:#660e7a;&quot;&gt;child_bus&lt;/span&gt;;&lt;br&gt;&lt;span style=&quot;color:#0033b3;&quot;&gt;int &lt;/span&gt;&lt;span style=&quot;color:#660e7a;&quot;&gt;num_child_bus&lt;/span&gt;;&lt;br&gt;&lt;span style=&quot;color:#0033b3;&quot;&gt;int &lt;/span&gt;&lt;span style=&quot;color:#660e7a;&quot;&gt;instance_id_alias&lt;/span&gt;;&lt;br&gt;&lt;span style=&quot;color:#0033b3;&quot;&gt;int &lt;/span&gt;&lt;span style=&quot;color:#660e7a;&quot;&gt;alias_required_for_version&lt;/span&gt;;&lt;br&gt;&lt;span style=&quot;color:#371f80;&quot;&gt;ResettableState &lt;/span&gt;&lt;span style=&quot;color:#660e7a;&quot;&gt;reset&lt;/span&gt;;&lt;br&gt;&lt;span style=&quot;color:#371f80;&quot;&gt;GSList &lt;/span&gt;*&lt;span style=&quot;color:#660e7a;&quot;&gt;unplug_blockers&lt;/span&gt;;&lt;/div&gt;" style="text;whiteSpace=wrap;html=1;" vertex="1" parent="suy_uMOGLC9eVbtw0SGc-6">
          <mxGeometry y="20" width="280" height="370" as="geometry" />
        </mxCell>
      </root>
    </mxGraphModel>
  </diagram>
</mxfile>
